<mxfile host="app.diagrams.net" modified="2023-05-03T13:50:04.848Z" agent="Mozilla/5.0 (Windows NT 10.0; Win64; x64) AppleWebKit/537.36 (KHTML, like Gecko) Chrome/112.0.0.0 Safari/537.36" etag="GGTw0KDkn7aTj8tPeIjG" version="21.2.7" type="device">
  <diagram name="Seite-1" id="T3qOwCYRP5SabC_Y7l2l">
    <mxGraphModel dx="1189" dy="571" grid="1" gridSize="10" guides="1" tooltips="1" connect="1" arrows="1" fold="1" page="1" pageScale="1" pageWidth="827" pageHeight="1169" math="0" shadow="0">
      <root>
        <mxCell id="0" />
        <mxCell id="1" parent="0" />
        <mxCell id="LrtDx9Zr3HTaaep1rT7l-24" value="" style="group" vertex="1" connectable="0" parent="1">
          <mxGeometry x="240" y="510" width="290" height="131.31999999999994" as="geometry" />
        </mxCell>
        <mxCell id="LrtDx9Zr3HTaaep1rT7l-21" value="&lt;p style=&quot;margin:0px;margin-top:4px;text-align:center;&quot;&gt;&lt;i&gt;&amp;lt;&amp;lt;Interface&amp;gt;&amp;gt;&lt;/i&gt;&lt;br&gt;&lt;b&gt;DoublyLinkedList&lt;/b&gt;&lt;/p&gt;&lt;hr size=&quot;1&quot;&gt;&amp;nbsp;+ get_front() : Iterator&lt;br&gt;&lt;div&gt;&amp;nbsp;+ insert_after(predecessor : ListNode&amp;lt;T&amp;gt;, t : T)&lt;/div&gt;&lt;div&gt;&amp;nbsp;+ get_end() : Iterator&lt;/div&gt;&lt;div&gt;&amp;nbsp;+ remove(node : ListNode)&lt;/div&gt;" style="verticalAlign=top;align=left;overflow=fill;fontSize=12;fontFamily=Helvetica;html=1;whiteSpace=wrap;" vertex="1" parent="LrtDx9Zr3HTaaep1rT7l-24">
          <mxGeometry y="10" width="280" height="121.32" as="geometry" />
        </mxCell>
        <mxCell id="LrtDx9Zr3HTaaep1rT7l-23" value="T" style="fontStyle=0;dashed=1;html=1;whiteSpace=wrap;" vertex="1" parent="LrtDx9Zr3HTaaep1rT7l-24">
          <mxGeometry x="260" width="30" height="30" as="geometry" />
        </mxCell>
        <mxCell id="LrtDx9Zr3HTaaep1rT7l-29" value="" style="group" vertex="1" connectable="0" parent="1">
          <mxGeometry x="560" y="350" width="290" height="130" as="geometry" />
        </mxCell>
        <mxCell id="LrtDx9Zr3HTaaep1rT7l-5" value="&lt;p style=&quot;margin:0px;margin-top:4px;text-align:center;&quot;&gt;&lt;i&gt;&amp;lt;&amp;lt;Interface&amp;gt;&amp;gt;&lt;/i&gt;&lt;br&gt;&lt;b&gt;Hashset&lt;/b&gt;&lt;/p&gt;&lt;hr size=&quot;1&quot;&gt;&lt;p style=&quot;margin:0px;margin-left:4px;&quot;&gt;+ size()&amp;nbsp;&lt;/p&gt;&lt;p style=&quot;margin:0px;margin-left:4px;&quot;&gt;+ add(t : T)&lt;/p&gt;&lt;p style=&quot;margin:0px;margin-left:4px;&quot;&gt;+ contains(t : T) : bool&lt;/p&gt;&lt;p style=&quot;margin:0px;margin-left:4px;&quot;&gt;+ remove(t : T)&lt;/p&gt;" style="verticalAlign=top;align=left;overflow=fill;fontSize=12;fontFamily=Helvetica;html=1;whiteSpace=wrap;" vertex="1" parent="LrtDx9Zr3HTaaep1rT7l-29">
          <mxGeometry y="10" width="280" height="120" as="geometry" />
        </mxCell>
        <mxCell id="LrtDx9Zr3HTaaep1rT7l-6" value="T" style="fontStyle=0;dashed=1;html=1;whiteSpace=wrap;" vertex="1" parent="LrtDx9Zr3HTaaep1rT7l-29">
          <mxGeometry x="260" width="30" height="30" as="geometry" />
        </mxCell>
        <mxCell id="LrtDx9Zr3HTaaep1rT7l-30" value="" style="group" vertex="1" connectable="0" parent="1">
          <mxGeometry x="240" y="350" width="290" height="130" as="geometry" />
        </mxCell>
        <mxCell id="LrtDx9Zr3HTaaep1rT7l-2" value="&lt;p style=&quot;margin:0px;margin-top:4px;text-align:center;&quot;&gt;&lt;i&gt;&amp;lt;&amp;lt;Interface&amp;gt;&amp;gt;&lt;/i&gt;&lt;br&gt;&lt;b&gt;Queue&lt;/b&gt;&lt;/p&gt;&lt;hr size=&quot;1&quot;&gt;&lt;p style=&quot;border-color: var(--border-color); margin: 0px 0px 0px 4px;&quot;&gt;+ size()&amp;nbsp;&lt;/p&gt;&lt;p style=&quot;border-color: var(--border-color); margin: 0px 0px 0px 4px;&quot;&gt;+ push(t : T)&lt;/p&gt;&lt;p style=&quot;border-color: var(--border-color); margin: 0px 0px 0px 4px;&quot;&gt;+ pop() : T&lt;/p&gt;" style="verticalAlign=top;align=left;overflow=fill;fontSize=12;fontFamily=Helvetica;html=1;whiteSpace=wrap;" vertex="1" parent="LrtDx9Zr3HTaaep1rT7l-30">
          <mxGeometry y="10" width="280" height="120" as="geometry" />
        </mxCell>
        <mxCell id="LrtDx9Zr3HTaaep1rT7l-3" value="T" style="fontStyle=0;dashed=1;html=1;whiteSpace=wrap;" vertex="1" parent="LrtDx9Zr3HTaaep1rT7l-30">
          <mxGeometry x="260" width="30" height="30" as="geometry" />
        </mxCell>
        <mxCell id="LrtDx9Zr3HTaaep1rT7l-31" value="" style="group" vertex="1" connectable="0" parent="1">
          <mxGeometry x="560" y="510" width="290" height="130" as="geometry" />
        </mxCell>
        <mxCell id="LrtDx9Zr3HTaaep1rT7l-18" value="&lt;p style=&quot;margin:0px;margin-top:4px;text-align:center;&quot;&gt;&lt;i&gt;&amp;lt;&amp;lt;Interface&amp;gt;&amp;gt;&lt;/i&gt;&lt;br&gt;&lt;b&gt;SinglyLinkedList&lt;/b&gt;&lt;/p&gt;&lt;hr size=&quot;1&quot;&gt;&amp;nbsp;+ get_front() : Iterator&lt;br&gt;&amp;nbsp;+ insert_after(predecessor : ListNode&amp;lt;T&amp;gt;, t : T)&lt;b&gt;&lt;br&gt;&lt;/b&gt;&lt;p style=&quot;margin:0px;margin-left:4px;&quot;&gt;+ remove_front()&lt;/p&gt;&lt;p style=&quot;margin:0px;margin-left:4px;&quot;&gt;+ remove_after(predecessor : ListNode)&lt;/p&gt;" style="verticalAlign=top;align=left;overflow=fill;fontSize=12;fontFamily=Helvetica;html=1;whiteSpace=wrap;container=0;" vertex="1" parent="LrtDx9Zr3HTaaep1rT7l-31">
          <mxGeometry y="10.659999999999968" width="280" height="119.34" as="geometry" />
        </mxCell>
        <mxCell id="LrtDx9Zr3HTaaep1rT7l-26" value="T" style="fontStyle=0;dashed=1;html=1;whiteSpace=wrap;container=0;" vertex="1" parent="LrtDx9Zr3HTaaep1rT7l-31">
          <mxGeometry x="260" width="30" height="30" as="geometry" />
        </mxCell>
        <mxCell id="LrtDx9Zr3HTaaep1rT7l-32" value="" style="group" vertex="1" connectable="0" parent="1">
          <mxGeometry x="240" y="190" width="290" height="130" as="geometry" />
        </mxCell>
        <mxCell id="LrtDx9Zr3HTaaep1rT7l-11" value="&lt;p style=&quot;margin:0px;margin-top:4px;text-align:center;&quot;&gt;&lt;i&gt;&amp;lt;&amp;lt;Interface&amp;gt;&amp;gt;&lt;/i&gt;&lt;br&gt;&lt;b&gt;Priority Queue&lt;/b&gt;&lt;/p&gt;&lt;hr size=&quot;1&quot;&gt;&lt;p style=&quot;margin:0px;margin-left:4px;&quot;&gt;+ size()&amp;nbsp;&lt;/p&gt;&lt;p style=&quot;margin:0px;margin-left:4px;&quot;&gt;&lt;span style=&quot;background-color: initial;&quot;&gt;+ get_first_element() : Iterator&lt;/span&gt;&lt;/p&gt;&lt;p style=&quot;margin:0px;margin-left:4px;&quot;&gt;+ add(t : T)&lt;/p&gt;&lt;p style=&quot;margin:0px;margin-left:4px;&quot;&gt;+ get_highest_prio() : T&lt;/p&gt;&lt;p style=&quot;margin:0px;margin-left:4px;&quot;&gt;+ remove_highest_prio()&lt;/p&gt;" style="verticalAlign=top;align=left;overflow=fill;fontSize=12;fontFamily=Helvetica;html=1;whiteSpace=wrap;" vertex="1" parent="LrtDx9Zr3HTaaep1rT7l-32">
          <mxGeometry y="10" width="280" height="120" as="geometry" />
        </mxCell>
        <mxCell id="LrtDx9Zr3HTaaep1rT7l-12" value="T" style="fontStyle=0;dashed=1;html=1;whiteSpace=wrap;" vertex="1" parent="LrtDx9Zr3HTaaep1rT7l-32">
          <mxGeometry x="260" width="30" height="30" as="geometry" />
        </mxCell>
        <mxCell id="LrtDx9Zr3HTaaep1rT7l-33" value="" style="group" vertex="1" connectable="0" parent="1">
          <mxGeometry x="560" y="190" width="290" height="130" as="geometry" />
        </mxCell>
        <mxCell id="LrtDx9Zr3HTaaep1rT7l-8" value="&lt;p style=&quot;margin:0px;margin-top:4px;text-align:center;&quot;&gt;&lt;i&gt;&amp;lt;&amp;lt;Interface&amp;gt;&amp;gt;&lt;/i&gt;&lt;br&gt;&lt;b&gt;Stack&lt;/b&gt;&lt;/p&gt;&lt;hr size=&quot;1&quot;&gt;&lt;p style=&quot;margin:0px;margin-left:4px;&quot;&gt;+ size()&amp;nbsp;&lt;/p&gt;&lt;p style=&quot;margin:0px;margin-left:4px;&quot;&gt;+ push(t : T)&lt;/p&gt;&lt;p style=&quot;margin:0px;margin-left:4px;&quot;&gt;+ pop() : T&lt;/p&gt;" style="verticalAlign=top;align=left;overflow=fill;fontSize=12;fontFamily=Helvetica;html=1;whiteSpace=wrap;" vertex="1" parent="LrtDx9Zr3HTaaep1rT7l-33">
          <mxGeometry y="10" width="280" height="120" as="geometry" />
        </mxCell>
        <mxCell id="LrtDx9Zr3HTaaep1rT7l-9" value="T" style="fontStyle=0;dashed=1;html=1;whiteSpace=wrap;" vertex="1" parent="LrtDx9Zr3HTaaep1rT7l-33">
          <mxGeometry x="260" width="30" height="30" as="geometry" />
        </mxCell>
      </root>
    </mxGraphModel>
  </diagram>
</mxfile>
